{"accessors" : [{"bufferView" : 0, "byteOffset" : 0, "componentType" : 5123, "count" : 36060, "type" : "SCALAR", "max" : [36059], "min" : [0]}, {"bufferView" : 1, "byteOffset" : 0, "componentType" : 5126, "count" : 36060, "type" : "VEC3", "max" : [1153878.75, 1153882.75, 1153886.75], "min" : [-9.261070251464844, -5.261070251464844, -1.2610702514648438]}, {"bufferView" : 1, "byteOffset" : 12, "componentType" : 5126, "count" : 36060, "type" : "VEC2", "max" : [1153890.75, 1153894.75], "min" : [2.7389297485351562, 6.738929748535156]}, {"bufferView" : 1, "byteOffset" : 20, "componentType" : 5126, "count" : 36060, "type" : "VEC3", "max" : [1153898.75, 1153902.75, 1153906.75], "min" : [10.738929748535156, 14.738929748535156, 18.738929748535156]}], "asset" : {"generator" : "Aspose.3D 20.8", "version" : "2.0"}, "buffers" : [{"uri" : "buffer.bin", "byteLength" : 1226048}], "bufferViews" : [{"buffer" : 0, "byteOffset" : 0, "byteLength" : 72120, "target" : 34963}, {"buffer" : 0, "byteOffset" : 72124, "byteLength" : 1153920, "byteStride" : 32, "target" : 34962}], "meshes" : [{"primitives" : [{"attributes" : {"POSITION" : 1, "TEXCOORD_0" : 2, "NORMAL" : 3}, "indices" : 0, "mode" : 4}]}], "nodes" : [{"mesh" : 0, "name" : "chair1"}], "scene" : 0, "scenes" : [{"nodes" : [0]}]}